<?xml version="1.0" encoding="utf-8"?>
<!-- Generator: Adobe Illustrator 22.0.0, SVG Export Plug-In . SVG Version: 6.00 Build 0)  -->
<svg version="1.1" id="Layer_1" xmlns="http://www.w3.org/2000/svg" xmlns:xlink="http://www.w3.org/1999/xlink" x="0px" y="0px"
	 viewBox="0 0 371.3 120.7" style="enable-background:new 0 0 371.3 120.7;" xml:space="preserve">
<style type="text/css">
	.st0{fill:#001D4D;}
	.st1{fill:#3CA2D4;}
	.st2{clip-path:url(#SVGID_2_);}
	.st3{fill:#FFFFFF;}
</style>
<g>
	<g>
		<path d="M63.6,29.4V15.6h5.6v22.5h-5.9l-8.5-13.8h-0.1v13.8h-5.6V15.6h6L63.6,29.4L63.6,29.4z"/>
		<path d="M80.4,38.6c-5.9,0-8.8-3.8-8.8-8.5c0-4.6,2.9-8.5,8.8-8.5c6,0,8.7,3.8,8.7,8.5C89.2,34.8,86.4,38.6,80.4,38.6z M80.4,34.3
			c1.9,0,3.2-1.2,3.2-4.1S82.3,26,80.4,26c-1.8,0-3.3,1.2-3.3,4.1S78.6,34.3,80.4,34.3z"/>
		<path d="M106.9,22.5L101,38.1H95l-5.9-15.6v-0.3h5.5L98,32.8H98l3.4-10.7h5.5V22.5z"/>
		<path d="M123.4,38.2c-0.8,0.2-1.6,0.3-2.6,0.3c-1.9,0-2.9-0.7-3.5-1.9h-0.1c-1.1,1-3.1,2-5.3,2c-3.6,0-5.2-2.3-5.2-5
			c0-3.5,2.1-5.5,8.1-5.5h1.9v-0.5c0-1.2-0.9-1.7-2.4-1.7c-1.7,0-3.5,0.4-5.3,1.1l-1.2-4c1.9-0.8,4.4-1.4,6.9-1.4
			c4.5,0,7.3,2,7.3,6.7v5.7c0,0.4,0.1,0.5,0.5,0.5h1V38.2z M115,31.4c-2.2,0-3,0.6-3,1.6c0,1,0.6,1.5,1.7,1.5c1,0,2.1-0.4,2.9-0.9
			v-2.2H115z"/>
	</g>
	<g>
		<path d="M31.4,37.3c4.4,0,9.2,1,13.6,3l-3,9c-3.9-1.7-6.6-2.4-10.6-2.4c-6.9,0-11.3,6-11.3,14.6C20.1,70,24.5,76,31.4,76
			c4,0,6.7-0.7,10.6-2.4l3,9c-4.3,2-9.2,3-13.6,3c-15,0-23.2-9.7-23.2-24.1C8.2,47,16.4,37.3,31.4,37.3z"/>
		<path d="M80.8,84.8c-1.6,0.3-3.3,0.5-5.4,0.5c-3.9,0-6-1.4-7.2-3.9h-0.1c-2.3,2-6.3,4.1-10.9,4.1c-7.4,0-10.6-4.8-10.6-10.2
			c0-7.1,4.3-11.2,16.6-11.2h3.8v-1c0-2.5-1.8-3.5-5-3.5c-3.5,0-7.1,0.7-10.9,2.2l-2.4-8.2c3.8-1.6,9-2.8,14.2-2.8
			c9.2,0,14.9,4.2,14.9,13.8v11.7c0,0.8,0.1,1,0.9,1h2V84.8z M63.7,70.7c-4.5,0-6.2,1.3-6.2,3.3c0,2.1,1.2,3.1,3.5,3.1
			c2.1,0,4.4-0.8,6-1.9v-4.5H63.7z"/>
		<path d="M98.5,44.2v7.6h9.8v8.4h-9.8v12.8c0,2.3,1.1,3.7,4,3.7c1.4,0,3.5-0.4,5.4-1v8.8c-1.4,0.3-5,1.1-8.9,1.1
			c-7.2,0-11.7-2.7-11.7-10.4V60.2h-6v-6.6l6-1.8v-7.6H98.5z"/>
		<path d="M144.3,84.8c-1.6,0.3-3.3,0.5-5.4,0.5c-3.9,0-6-1.4-7.2-3.9h-0.1c-2.3,2-6.3,4.1-10.9,4.1c-7.4,0-10.6-4.8-10.6-10.2
			c0-7.1,4.3-11.2,16.6-11.2h3.8v-1c0-2.5-1.8-3.5-5-3.5c-3.5,0-7.1,0.7-10.9,2.2l-2.4-8.2c3.8-1.6,9-2.8,14.2-2.8
			c9.2,0,14.9,4.2,14.9,13.8v11.7c0,0.8,0.1,1,0.9,1h2V84.8z M127.2,70.7c-4.5,0-6.2,1.3-6.2,3.3c0,2.1,1.2,3.1,3.5,3.1
			c2.1,0,4.4-0.8,6-1.9v-4.5H127.2z"/>
		<path d="M159,37v38.8c0,1,0.3,1.4,1.3,1.4h2.9v7.4c-2,0.3-4,0.6-6.2,0.6c-6.6,0-9-2.9-9-10V37H159z"/>
		<path d="M198.7,84.8c-1.6,0.3-3.3,0.5-5.4,0.5c-3.9,0-6-1.4-7.2-3.9H186c-2.3,2-6.3,4.1-10.9,4.1c-7.4,0-10.6-4.8-10.6-10.2
			c0-7.1,4.3-11.2,16.6-11.2h3.8v-1c0-2.5-1.8-3.5-5-3.5c-3.5,0-7.1,0.7-10.9,2.2l-2.4-8.2c3.8-1.6,9-2.8,14.2-2.8
			c9.2,0,14.9,4.2,14.9,13.8v11.7c0,0.8,0.1,1,0.9,1h2V84.8z M168.5,40.4c1.5-3,4.9-4.9,7.9-4.9c5.3,0,6.8,3.3,10.9,3.3
			c2,0,3.9-1,4.9-2.2l1.8,5.4c-1.5,3.4-5.1,5-7.7,5c-4.7,0-7.7-3.3-11-3.3c-2.3,0-3.5,0.7-5,2.4L168.5,40.4z M181.5,70.7
			c-4.5,0-6.2,1.3-6.2,3.3c0,2.1,1.2,3.1,3.5,3.1c2.1,0,4.4-0.8,6-1.9v-4.5H181.5z"/>
		<path d="M218.9,85.5c-12.1,0-18-7.9-18-17.4c0-9.5,6-17.4,18-17.4c12.3,0,17.9,7.9,17.9,17.4C236.8,77.6,231.1,85.5,218.9,85.5z
			 M218.9,76.6c3.9,0,6.6-2.4,6.6-8.5s-2.7-8.5-6.6-8.5c-3.7,0-6.7,2.4-6.7,8.5S215.1,76.6,218.9,76.6z"/>
	</g>
</g>
<path d="M313.9,110c-26,0-47.3-21.4-47.3-47.4c0-5.8,1-11.4,3-16.6l27.6,55.7c0.4,0.7,0.8,1.3,1.7,1.3c0.9,0,1.4-0.6,1.7-1.3
	l12.7-28.5c0.1-0.3,0.3-0.6,0.6-0.6s0.4,0.3,0.6,0.6l12.7,28.5c0.3,0.7,0.8,1.3,1.7,1.3c0.9,0,1.3-0.6,1.7-1.3L358.2,46
	c2,5.2,3,10.7,3,16.6C361.2,88.6,339.9,110,313.9,110 M313.9,51.9c-0.3,0-0.4-0.3-0.6-0.6l-14.9-33.4c4.8-1.8,10.1-2.7,15.5-2.7
	c5.4,0,10.7,0.9,15.5,2.7l-14.9,33.4C314.3,51.6,314.2,51.9,313.9,51.9 M298.8,86.1c-0.3,0-0.4-0.3-0.6-0.6L274.1,37
	c4.3-6.6,10.1-12.1,17-16l17.3,38.5c0.3,0.7,0.7,0.9,1.3,0.9h8.3c0.6,0,1-0.1,1.3-0.9l17.3-38.5c6.9,3.9,12.7,9.4,17,16l-24.1,48.5
	c-0.1,0.3-0.3,0.6-0.6,0.6c-0.3,0-0.4-0.3-0.6-0.6l-9-20.7c-0.3-0.7-0.7-0.9-1.3-0.9h-8.3c-0.6,0-1,0.1-1.3,0.9l-9,20.7
	C299.2,85.9,299.1,86.1,298.8,86.1 M313.9,114.8c28.9,0,52.2-23.3,52.2-52.2c0-28.9-23.3-52.2-52.2-52.2
	c-28.9,0-52.2,23.3-52.2,52.2C261.7,91.5,285,114.8,313.9,114.8"/>
<g>
	<defs>
		<rect id="SVGID_1_" width="371.3" height="120.7"/>
	</defs>
	<clipPath id="SVGID_2_">
		<use xlink:href="#SVGID_1_"  style="overflow:visible;"/>
	</clipPath>
	<g class="st2">
		<defs>
			<rect id="SVGID_3_" width="371.3" height="120.7"/>
		</defs>
		<clipPath id="SVGID_4_">
			<use xlink:href="#SVGID_3_"  style="overflow:visible;"/>
		</clipPath>
	</g>
</g>
<g>
	<path d="M101.6,108.1h-2.9l-0.8-2.6h-5l-0.9,2.6h-2.9l4.7-12.8h3L101.6,108.1z M95.3,97.9l-1.7,5.4h3.6L95.3,97.9L95.3,97.9z"/>
	<path d="M109.2,94.9v4.8h0c0.5-0.4,1.3-0.9,2.6-0.9c2.6,0,4,2.2,4,4.8c0,2.6-1.4,4.8-4,4.8c-1.3,0-2.2-0.6-2.9-1.1h0l-0.4,0.8h-1.9
		V94.9H109.2z M109.2,105.7c0.5,0.3,1.2,0.5,1.8,0.5c1.5,0,2.2-1.1,2.2-2.7c0-1.6-0.7-2.7-2.2-2.7c-0.7,0-1.3,0.2-1.8,0.5V105.7z"/>
	<path d="M122,108.3c-3.1,0-4.8-2.2-4.8-4.8c0-2.6,1.7-4.8,4.8-4.8c3.2,0,4.8,2.2,4.8,4.8C126.7,106.2,125.1,108.3,122,108.3z
		 M122,106.3c1.3,0,2.2-0.9,2.2-2.7c0-1.8-0.9-2.7-2.2-2.7c-1.3,0-2.2,0.9-2.2,2.7C119.8,105.3,120.7,106.3,122,106.3z"/>
	<path d="M136.2,106.1c0,0.3,0,0.3,0.3,0.3h0.7v1.7c-0.4,0.1-0.8,0.1-1.3,0.1c-1,0-1.5-0.4-1.8-1.1h0c-0.6,0.5-1.8,1.1-2.9,1.1
		c-2,0-3.1-1.2-3.1-2.9c0-2,1.3-3,4.5-3h1.2v-0.4c0-1.1-1-1.3-1.5-1.3c-1,0-2.1,0.3-3,0.7l-0.6-1.9c1-0.4,2.3-0.8,3.7-0.8
		c2.6,0,3.9,1.3,3.9,3.7V106.1z M132.8,104.1c-1.7,0-2.3,0.4-2.3,1.1c0,0.8,0.4,1.1,1.2,1.1c0.7,0,1.5-0.2,2.1-0.6v-1.6H132.8z"/>
	<path d="M151.9,94.9v13.2H150l-0.4-0.8h0c-0.7,0.5-1.5,1.1-2.9,1.1c-2.6,0-4-2.2-4-4.8c0-2.6,1.4-4.8,4-4.8c1.3,0,2,0.5,2.6,0.9h0
		v-4.8H151.9z M149.3,101.3c-0.5-0.3-1.2-0.5-1.8-0.5c-1.5,0-2.2,1.1-2.2,2.7c0,1.6,0.7,2.7,2.2,2.7c0.7,0,1.3-0.2,1.8-0.5V101.3z"
		/>
	<path d="M156.3,104.3c0.1,1.3,0.9,2,2.3,2c1.1,0,2-0.2,2.9-0.6l0.6,1.8c-0.9,0.4-2.2,0.8-3.7,0.8c-3.1,0-4.7-2.2-4.7-4.8
		c0-2.6,1.6-4.8,4.5-4.8c2.9,0,4.2,1.8,4.2,3.9c0,0.6-0.1,1.3-0.1,1.6H156.3z M160.2,102.7c0-0.1,0-0.2,0-0.3c0-1-0.5-1.8-1.9-1.8
		c-1.3,0-1.9,1-2,2.1H160.2z"/>
	<path d="M170.7,99l0.3,0.9h0c0.5-0.5,1.5-1.2,2.9-1.2c2.1,0,3.3,1.4,3.3,3.6v5.7h-2.5v-5.5c0-1.2-0.5-1.8-1.6-1.8
		c-0.9,0-1.6,0.5-2,0.8v6.5h-2.5V99H170.7z"/>
	<path d="M181.7,104.3c0.1,1.3,0.9,2,2.3,2c1.1,0,2-0.2,2.9-0.6l0.6,1.8c-0.9,0.4-2.2,0.8-3.7,0.8c-3.1,0-4.7-2.2-4.7-4.8
		c0-2.6,1.6-4.8,4.5-4.8c2.9,0,4.2,1.8,4.2,3.9c0,0.6-0.1,1.3-0.1,1.6H181.7z M185.6,102.7c0-0.1,0-0.2,0-0.3c0-1-0.5-1.8-1.9-1.8
		c-1.3,0-1.9,1-2,2.1H185.6z"/>
	<path d="M198.4,107.5c0,3-1.7,4.6-4.7,4.6c-1.5,0-2.7-0.4-3.6-0.9l0.7-1.9c0.8,0.4,1.7,0.7,2.8,0.7c1.5,0,2.1-0.5,2.1-2v-0.7h0
		c-0.5,0.4-1.3,0.9-2.6,0.9c-2.6,0-3.9-2.1-3.9-4.7c0-2.6,1.3-4.8,3.9-4.8c1.4,0,2.1,0.6,2.8,1.1h0l0.3-0.8h2V107.5z M195.9,101.4
		c-0.5-0.3-1.2-0.6-1.8-0.6c-1.5,0-2.1,1.1-2.1,2.7c0,1.6,0.6,2.6,2.1,2.6c0.7,0,1.3-0.2,1.8-0.5V101.4z"/>
	<path d="M205.1,108.3c-3.1,0-4.8-2.2-4.8-4.8c0-2.6,1.7-4.8,4.8-4.8c3.2,0,4.8,2.2,4.8,4.8C209.9,106.2,208.2,108.3,205.1,108.3z
		 M205.1,106.3c1.3,0,2.2-0.9,2.2-2.7c0-1.8-0.9-2.7-2.2-2.7c-1.3,0-2.2,0.9-2.2,2.7C202.9,105.3,203.8,106.3,205.1,106.3z
		 M208.1,94.8l-1.9,2.6h-2.2v-0.2l1.5-2.6h2.7V94.8z"/>
	<path d="M216.1,98.7c1.1,0,2.2,0.3,2.8,0.5l-0.5,1.9c-0.5-0.2-1.2-0.4-2-0.4c-1.4,0-2.5,0.8-2.5,2.7c0,2,1.1,2.7,2.5,2.7
		c0.8,0,1.5-0.2,2-0.4l0.5,1.9c-0.6,0.2-1.7,0.5-2.8,0.5c-3.1,0-4.8-1.9-4.8-4.8S213,98.7,216.1,98.7z"/>
	<path d="M222,94.6c0.9,0,1.5,0.6,1.5,1.4s-0.6,1.4-1.5,1.4c-0.9,0-1.5-0.6-1.5-1.4S221.2,94.6,222,94.6z M220.8,108.1V99h2.5v9.1
		H220.8z"/>
	<path d="M230,108.3c-3.1,0-4.8-2.2-4.8-4.8c0-2.6,1.7-4.8,4.8-4.8c3.2,0,4.8,2.2,4.8,4.8C234.7,106.2,233.1,108.3,230,108.3z
		 M230,106.3c1.3,0,2.2-0.9,2.2-2.7c0-1.8-0.9-2.7-2.2-2.7c-1.3,0-2.2,0.9-2.2,2.7C227.8,105.3,228.7,106.3,230,106.3z"/>
</g>
</svg>
