<?xml version="1.0" encoding="utf-8"?>
<!-- Generator: Adobe Illustrator 25.0.1, SVG Export Plug-In . SVG Version: 6.00 Build 0)  -->
<svg version="1.1" id="Camada_1" xmlns="http://www.w3.org/2000/svg" xmlns:xlink="http://www.w3.org/1999/xlink" x="0px" y="0px"
	 viewBox="0 0 1644.6 417.1" style="enable-background:new 0 0 1644.6 417.1;" xml:space="preserve">
<style type="text/css">
	.st0{stroke:#000000;stroke-width:3;stroke-miterlimit:10;}
	.st1{fill-rule:evenodd;clip-rule:evenodd;}
</style>
<g>
	<line class="st0" x1="807.5" y1="320.1" x2="807.5" y2="96.8"/>
	<path class="st1" d="M147.2,158.2h49.7v131.5h36.6V158.2h49.8v-33.7H147.2V158.2L147.2,158.2z M686.4,186.7v-23.4h-36v126.4h36
		v-50.9c0-6.1,1.4-12.4,2.9-17.1c6.3-18.8,19.9-22.1,37.1-23.5v-37.7c-19.1,0-30.5,7.6-38.3,23.5L686.4,186.7L686.4,186.7z
		 M571.5,266.8c-9.7,0-20.6-3.3-20.6-13.2c0-6.2,0-11.5,7.1-15.8c8.2-4.9,22.1-4.3,31.4-2.1c9.6,2.3,8.5,2.8,8.5,8.1
		C597.8,259.1,585.1,266.8,571.5,266.8L571.5,266.8z M526.9,171.3c0.1,3.4,3.1,10.5,4.2,14.1c1.4,4.9,3.3,9.5,4.4,13.9
		c11.4-2.6,16.3-6.9,34.3-6.9c17.3,0,27.4,6.7,27.4,24.6c-7.9-0.7-6-4.6-36-4.6c-15.7,0-33.8,7.4-40.6,20.6
		c-5.9,11.4-6.5,27-0.6,38.3c2.3,4.5,5.1,7.3,8.7,10.7c11.8,11,37.8,12.7,52.7,5.5c3.4-1.7,5.3-2.9,8.3-4.9c1.7-1.2,5.7-4.7,7-6.2
		c0,2.5,0,5,0,7.4c0,2.6-0.8,5.7,1.7,5.7h33.2v-78.3c0-14-5.2-27.9-15-37c-15.8-14.7-48-14.9-67.9-9.9L526.9,171.3L526.9,171.3z
		 M395.4,223.3c0,14.7,0.5,18.9,6.1,32.2c3,7.1,8.2,13.2,13.5,18.6c3.2,3.2,4.9,4.6,8.8,7.2c3.4,2.2,6.5,4,10.4,5.7
		c15.5,6.7,41.6,8.3,57.1-1c6.5-3.9,16.9-11.1,20.8-16.9l-20.7-21c-10.5,6.8-12.3,13-30.7,13c-8.9,0-15.5-4.3-21-9.9
		c-16.2-16.3-10.6-59.3,22.2-59.3c16.4,0,22.2,9.8,28,13.7c0.9-0.7,4-4.3,5.3-5.6l16.4-17.9c-5.6-8.3-20-16.5-30.4-19.3
		c-19.6-5.3-44.4-1.3-59.9,10.7c-4.7,3.6-9.1,7.8-12.6,12.6C401.3,196.3,395.4,209.8,395.4,223.3L395.4,223.3z M325.6,189.6
		c10.9,0,19.4,6.4,23.4,16.1c1.5,3.6,2,6.8,2.9,10.8h-53.2c0.1-5.4,4.3-14.6,8.1-18.7C311.1,193.2,317.1,189.6,325.6,189.6
		L325.6,189.6z M263.3,225.1c0-9.6,2.6-19.5,5.5-26.5c1.5-3.6,3.6-7.2,5.6-10.5c1-1.6,2.2-3.2,3.4-4.6l3.4-4
		c10.9-11.8,28.2-19,44.5-19L340,162c13.7,3.1,20.6,7.9,30,17.4c1.4,1.4,2.5,2.8,3.7,4.4c7.8,9.8,13.1,28.8,13.1,41.8
		c0,7.9,1.2,13.2-1.7,13.2h-85.8c0.1,3.1,2.3,8.4,3.7,10.6c1.9,3.1,3.5,5.3,6.3,7.4c10.5,8.2,26.4,8.3,38.5,2.3c6-3,10-7.7,12.8-8.4
		l15.2,13.4c2,1.5,2.9,3.1,4.8,4.3c-4.7,7-13.1,13.3-21,17.4c-36.6,18.7-96.3-1.3-96.3-58V225.1z"/>
</g>
<g>
	<polygon points="1387.3,97 1311.3,320.1 1346.5,320.1 1422.4,97 	"/>
	<polygon points="1316.9,97 1240.9,320.1 1276.1,320.1 1352.1,97 	"/>
	<polygon points="1457.6,97 1381.6,320.1 1416.8,320.1 1492.8,97 	"/>
	<polygon points="1528,97 1452,320.1 1487.2,320.1 1563.2,97 	"/>
	<rect x="987" y="96.9" width="32.5" height="223.3"/>
	<polygon points="904.7,96.9 904.7,320.2 937.2,320.2 937.2,219.1 960.9,219.1 960.9,193.2 937.2,193.2 937.2,122.6 967.6,122.6 
		967.6,96.9 	"/>
	<polygon points="1138.4,96.9 1138.4,122.6 1161.6,122.6 1161.7,320.1 1193.7,320.1 1193.7,122.6 1217.2,122.6 1217.2,96.9 	"/>
	<path d="M1072.1,193.4v-71h15.4h0.4c5.8,12.5,9.6,30.6,12,44c2.5,14.6,3.8,27,3.8,27H1072.1z M1107.7,96.9h-64.8v223.2h29.6V219.2
		h32.6c2.9,18.4,3.2,94.9,3.2,100.8h30C1139.1,263.4,1138.6,157.9,1107.7,96.9"/>
</g>
</svg>
